<svg width="109" height="70" viewBox="0 0 109 70" fill="none" xmlns="http://www.w3.org/2000/svg">
    <path d="M0 32.088V42.9911C30.2289 19.4578 40.2628 94.5309 101.621 48.8666C103.808 47.2443 105.673 44.5421 106.985 41.095C108.297 37.6479 108.998 33.6077 109 29.4754C42.057 86.101 31.711 7.50775 1.43214 28.4225C1.00977 28.7145 0.647512 29.2199 0.392203 29.8734C0.136891 30.5268 0.000271976 31.2982 0 32.088Z" fill="#78C2C3"/>
    <path d="M108.713 4.68834C88.6252 -10.9499 77.4554 16.9548 54.2148 24.0381C67.3012 28.0264 84.2176 25.4099 108.713 4.68834Z" fill="#3F6699"/>
    <path d="M0 23.9045C31.2017 -0.389828 40.889 80.3772 107.704 24.9898C108.092 24.6691 108.419 24.1646 108.648 23.5344C108.878 22.9042 109 22.1742 109 21.4287V10.3869C48.315 61.7179 34.1402 1.93173 9.46382 5.88571C6.87737 6.29885 4.47302 8.3757 2.72226 11.7091C0.971499 15.0425 0.000627809 19.3919 0 23.9045Z" fill="#78C2C3"/>
    <path d="M0.286621 49.0766C20.3707 33.4384 31.5424 61.3431 54.7825 68.4277C41.6932 72.4141 24.7802 69.7982 0.286621 49.0766Z" fill="#0D1B4C"/>
</svg>
