<svg width="67" height="44" viewBox="0 0 67 44" fill="none" xmlns="http://www.w3.org/2000/svg">
	<path d="M0 19.7836V26.5058C18.581 11.9966 24.7487 58.2822 62.464 30.1283C63.8086 29.1281 64.9552 27.462 65.7617 25.3368C66.5679 23.2115 66.9986 20.7206 67 18.1728C25.8515 53.0848 19.4921 4.62884 0.880307 17.5237C0.620681 17.7037 0.398012 18.0153 0.241079 18.4182C0.0841443 18.821 0.000167178 19.2967 0 19.7836Z" fill="#78C2C3"/>
	<path d="M66.8239 2.89055C54.4762 -6.75108 47.6103 10.4533 33.3248 14.8205C41.3687 17.2795 51.7669 15.6663 66.8239 2.89055Z" fill="#3F6699"/>
	<path d="M0 14.7381C19.179 -0.240366 25.1336 49.5558 66.2036 15.4072C66.4417 15.2095 66.6429 14.8984 66.7839 14.5099C66.9248 14.1214 66.9998 13.6713 67 13.2116V6.40391C29.6982 38.0516 20.9853 1.19097 5.81721 3.62876C4.22738 3.88348 2.74947 5.16395 1.67331 7.21914C0.59716 9.27429 0.000385901 11.9559 0 14.7381Z" fill="#78C2C3"/>
	<path d="M0.17627 30.2578C12.5215 20.6162 19.3885 37.8206 33.6737 42.1885C25.628 44.6463 15.2319 43.0335 0.17627 30.2578Z" fill="#0D1B4C"/>
</svg>